<?xml version="1.0" encoding="iso-8859-1"?>
<!-- Generator: Adobe Illustrator 27.0.1, SVG Export Plug-In . SVG Version: 6.00 Build 0)  -->
<svg version="1.1" id="Lag_1" xmlns="http://www.w3.org/2000/svg" xmlns:xlink="http://www.w3.org/1999/xlink" x="0px" y="0px"
	 viewBox="0 0 224.3 93" style="enable-background:new 0 0 224.3 93;" xml:space="preserve">
<g>
	<path style="fill:#C6A76E;" d="M90.555,20.845c-0.322,0-0.581-0.262-0.581-0.582s0.259-0.582,0.581-0.582
		c0.321,0,0.582,0.262,0.582,0.582S90.876,20.845,90.555,20.845"/>
	<path style="fill:#C6A76E;" d="M93.694,20.845c-0.485,0-0.88-0.394-0.88-0.88c0-0.487,0.394-0.881,0.88-0.881
		c0.488,0,0.882,0.394,0.882,0.881C94.576,20.451,94.181,20.845,93.694,20.845"/>
	<path style="fill:#C6A76E;" d="M97.431,20.845c-0.651,0-1.18-0.527-1.18-1.179c0-0.65,0.528-1.179,1.18-1.179
		c0.651,0,1.179,0.529,1.179,1.179C98.609,20.318,98.082,20.845,97.431,20.845"/>
	<path style="fill:#C6A76E;" d="M101.764,20.845c-0.816,0-1.479-0.661-1.479-1.479c0-0.815,0.663-1.476,1.479-1.476
		c0.817,0,1.478,0.66,1.478,1.476C103.243,20.184,102.581,20.845,101.764,20.845"/>
	<path style="fill:#C6A76E;" d="M106.695,20.845c-0.98,0-1.776-0.795-1.776-1.777c0-0.981,0.796-1.775,1.776-1.775
		c0.982,0,1.776,0.794,1.776,1.775C108.471,20.05,107.677,20.845,106.695,20.845"/>
	<path style="fill:#C6A76E;" d="M112.225,20.845c-1.147,0-2.076-0.929-2.076-2.075c0-1.146,0.929-2.075,2.076-2.075
		c1.147,0,2.075,0.929,2.075,2.075C114.3,19.916,113.371,20.845,112.225,20.845"/>
	<path style="fill:#C6A76E;" d="M117.753,20.845c-0.982,0-1.776-0.795-1.776-1.777c0-0.981,0.794-1.775,1.776-1.775
		c0.98,0,1.777,0.794,1.777,1.775C119.531,20.05,118.733,20.845,117.753,20.845"/>
	<path style="fill:#C6A76E;" d="M122.684,20.845c-0.816,0-1.479-0.661-1.479-1.479c0-0.815,0.663-1.476,1.479-1.476
		c0.817,0,1.478,0.66,1.478,1.476C124.163,20.184,123.501,20.845,122.684,20.845"/>
	<path style="fill:#C6A76E;" d="M127.018,20.845c-0.651,0-1.18-0.527-1.18-1.179c0-0.65,0.528-1.179,1.18-1.179
		c0.65,0,1.179,0.529,1.179,1.179C128.197,20.318,127.668,20.845,127.018,20.845"/>
	<path style="fill:#C6A76E;" d="M130.755,20.845c-0.488,0-0.881-0.394-0.881-0.88c0-0.487,0.393-0.881,0.881-0.881
		c0.486,0,0.88,0.394,0.88,0.881C131.635,20.451,131.241,20.845,130.755,20.845"/>
	<path style="fill:#C6A76E;" d="M133.894,20.845c-0.322,0-0.582-0.262-0.582-0.582s0.26-0.582,0.582-0.582
		c0.322,0,0.582,0.262,0.582,0.582S134.216,20.845,133.894,20.845"/>
	<path style="fill:#C6A76E;" d="M106.695,17.293c-0.98,0-1.777,0.795-1.777,1.776c0,0.982,0.797,1.775,1.777,1.775
		c0.982,0,1.777-0.794,1.777-1.775C108.472,18.088,107.677,17.293,106.695,17.293"/>
	<path style="fill:#C6A76E;" d="M101.764,17.89c-0.816,0-1.477,0.662-1.477,1.477c0,0.817,0.661,1.478,1.477,1.478
		c0.817,0,1.479-0.661,1.479-1.478C103.243,18.552,102.581,17.89,101.764,17.89"/>
	<path style="fill:#C6A76E;" d="M97.43,18.487c-0.651,0-1.179,0.528-1.179,1.179c0,0.652,0.528,1.179,1.179,1.179
		c0.651,0,1.179-0.528,1.179-1.179C98.61,19.016,98.081,18.487,97.43,18.487"/>
	<path style="fill:#C6A76E;" d="M93.694,19.084c-0.486,0-0.88,0.394-0.88,0.88c0,0.488,0.394,0.882,0.88,0.882
		c0.486,0,0.881-0.394,0.881-0.882C94.575,19.478,94.18,19.084,93.694,19.084"/>
	<path style="fill:#C6A76E;" d="M90.556,19.682c-0.322,0-0.582,0.26-0.582,0.582c0,0.32,0.26,0.581,0.582,0.581
		c0.32,0,0.581-0.261,0.581-0.581C91.136,19.941,90.876,19.682,90.556,19.682"/>
	<path style="fill:#C6A76E;" d="M117.754,17.293c-0.982,0-1.778,0.795-1.778,1.776c0,0.982,0.796,1.775,1.778,1.775
		c0.98,0,1.776-0.794,1.776-1.775C119.53,18.088,118.734,17.293,117.754,17.293"/>
	<path style="fill:#C6A76E;" d="M122.685,17.89c-0.817,0-1.479,0.662-1.479,1.477c0,0.817,0.663,1.478,1.479,1.478
		c0.816,0,1.477-0.661,1.477-1.478C124.162,18.552,123.501,17.89,122.685,17.89"/>
	<path style="fill:#C6A76E;" d="M127.018,18.487c-0.651,0-1.18,0.528-1.18,1.179c0,0.652,0.528,1.179,1.18,1.179
		c0.65,0,1.179-0.528,1.179-1.179C128.197,19.016,127.669,18.487,127.018,18.487"/>
	<path style="fill:#C6A76E;" d="M130.755,19.084c-0.486,0-0.881,0.394-0.881,0.88c0,0.488,0.395,0.882,0.881,0.882
		c0.486,0,0.88-0.394,0.88-0.882C131.635,19.478,131.241,19.084,130.755,19.084"/>
	<path style="fill:#C6A76E;" d="M133.894,19.682c-0.322,0-0.582,0.26-0.582,0.582c0,0.32,0.26,0.581,0.582,0.581
		c0.322,0,0.582-0.261,0.582-0.581C134.476,19.941,134.216,19.682,133.894,19.682"/>
	<path style="fill:#C6A76E;" d="M77.583,9.029c0.488-0.125,0.509-0.341,0.601-1.036l0.008-0.118
		c0.061-0.822,0.326-1.062,1.048-1.245l0.468-0.119l2.157,8.478c0.435,1.714-1.122,0.804-0.81,2.031l0.219,0.869
		c2.242-0.643,4.509-1.221,6.802-1.729l-0.222-0.869c-0.311-1.228-1.245,0.315-1.68-1.398L84.02,5.415l0.469-0.12
		c0.722-0.182,1.07-0.099,1.516,0.595l0.062,0.098c0.414,0.568,0.536,0.748,1.023,0.625l0.883-0.225l-0.927-3.652
		c-3.822,0.789-7.585,1.744-11.276,2.863l0.929,3.655L77.583,9.029z"/>
	<path style="fill:#C6A76E;" d="M91.233,5.091l1.17,7.409c0.294,1.858-1.057,0.827-0.865,2.041l0.141,0.882
		c2.216-0.417,4.454-0.77,6.711-1.058l-0.143-0.883c-0.191-1.213-1.159,0.182-1.451-1.674l-1.17-7.41
		c-0.294-1.856,1.055-0.826,0.864-2.04l-0.153-1.182c-2.256,0.295-4.494,0.646-6.712,1.055l0.156,1.187
		C89.971,4.631,90.94,3.233,91.233,5.091"/>
	<path style="fill:#C6A76E;" d="M99.937,3.159l4.367,10.606c1.048-0.08,2.099-0.146,3.152-0.196l3.093-10.706
		c0.338-1.159,1.384-0.85,1.337-1.63l-0.077-1.136c-1.51,0.016-3.015,0.055-4.511,0.121l0.049,1.218
		c0.057,0.911,1.083,0.307,1.142,1.273c0.016,0.26-0.08,0.807-0.217,1.337l-1.126,4.434l-0.037,0.001l-2.198-5.142
		c-0.632-1.473,1.149-0.723,1.081-1.838l-0.075-1.215c-2.444,0.136-4.871,0.34-7.276,0.609l0.085,1.032
		C98.782,2.876,99.564,2.249,99.937,3.159"/>
	<path style="fill:#C6A76E;" d="M130.533,4.332l-1.284,7.39c-0.321,1.854-1.266,0.441-1.476,1.651l-0.162,0.963
		c3.228,0.406,6.417,0.944,9.556,1.61l0.855-3.919l-0.735-0.118c-1.654-0.267-0.899,2.041-3.674,1.593l-0.156-0.009l1.458-8.401
		c0.324-1.851,1.268-0.44,1.478-1.651l0.217-1.207c-2.218-0.41-4.457-0.761-6.713-1.056l-0.199,1.101
		C129.489,3.49,130.854,2.479,130.533,4.332"/>
	<path style="fill:#C6A76E;" d="M142.284,6.591l-1.866,7.266c-0.467,1.82-1.298,0.338-1.603,1.529l-0.22,0.873
		c2.218,0.5,4.412,1.066,6.579,1.692l0.222-0.875c0.305-1.192-1.137-0.291-0.67-2.114l1.867-7.265
		c0.467-1.82,1.298-0.338,1.604-1.527l0.315-1.142c-2.17-0.62-4.364-1.186-6.581-1.694l-0.315,1.144
		C141.31,5.668,142.753,4.77,142.284,6.591"/>
	<path style="fill:#C6A76E;" d="M122.103,0.401c-0.7-0.215-1.44-0.344-2.196-0.386c-0.776-0.043-1.544,0.008-2.28,0.154
		c-2.842,0.564-5.176,2.57-5.381,6.305c-0.22,4.022,2.214,6.323,5.274,7.042c0.531,0.125,1.079,0.204,1.638,0.234
		c0.574,0.032,1.148,0.013,1.707-0.061c3.095-0.397,5.735-2.417,5.953-6.417C127.024,3.511,124.895,1.259,122.103,0.401
		 M121.502,6.999c-0.277,5.055-1.511,5.136-2.255,5.097c-0.743-0.042-1.962-0.257-1.686-5.313c0.278-5.074,1.514-5.156,2.256-5.115
		C120.561,1.71,121.778,1.926,121.502,6.999"/>
</g>
<g>
	<path style="fill:#C6A76E;" d="M127.753,33.648c-8.1,0-13.674,5.574-13.674,13.377c0,7.803,5.574,13.377,13.674,13.377
		s13.674-5.574,13.674-13.377C141.427,39.222,135.854,33.648,127.753,33.648z M127.753,59.733c-3.418,0-4.013-3.976-4.013-12.708
		s0.595-12.708,4.013-12.708c3.418,0,4.013,3.976,4.013,12.708S131.172,59.733,127.753,59.733z"/>
	<path style="fill:#C6A76E;" d="M68.438,33.648c-0.594,0.26-1.486,0.372-3.047,0.372H45.325c-1.56,0-2.452-0.111-3.047-0.372
		l-1.264,9.512h0.074c3.604-5.537,5.128-8.138,8.992-8.138h0.78v20.623c0,2.452-0.409,3.047-2.006,4.311v0.074h13.005v-0.074
		c-1.598-1.264-2.006-1.858-2.006-4.311V35.023h0.78c3.864,0,5.388,2.601,8.992,8.138h0.074L68.438,33.648z"/>
	<path style="fill:#C6A76E;" d="M84.368,34.094V34.02H71.363v0.074c1.598,1.264,2.007,1.858,2.007,4.31v17.241
		c0,2.452-0.409,3.047-2.007,4.311v0.074h13.006v-0.074c-1.598-1.264-2.007-1.858-2.007-4.311V38.404
		C82.361,35.952,82.77,35.358,84.368,34.094z"/>
	<path style="fill:#C6A76E;" d="M168.326,50.927c-3.047,5.351-4.236,8.1-9.587,8.1h-3.27V38.404c0-2.452,0.409-3.047,2.007-4.31
		V34.02H144.47v0.074c1.598,1.264,2.007,1.858,2.007,4.31v17.241c0,2.452-0.409,3.047-2.007,4.311v0.074h22.481l1.449-9.104H168.326
		z"/>
	<path style="fill:#C6A76E;" d="M183.268,34.094V34.02h-13.005v0.074c1.597,1.264,2.006,1.858,2.006,4.31v17.241
		c0,2.452-0.409,3.047-2.006,4.311v0.074h13.005v-0.074c-1.598-1.264-2.006-1.858-2.006-4.311V38.404
		C181.261,35.952,181.67,35.358,183.268,34.094z"/>
	<path style="fill:#C6A76E;" d="M108.112,34.02v0.074c1.523,0.706,2.192,1.746,2.192,2.936c0,0.557-0.149,1.115-0.409,1.709
		l-5.239,11.185l-5.648-11.631c-0.334-0.743-0.52-1.3-0.52-2.044c0-0.855,0.409-1.449,1.486-2.155V34.02H86.337v0.074
		c1.226,0.966,1.895,1.858,3.01,4.087l11.259,22.221h0.186l10.665-22.072c1.077-2.229,2.118-3.27,3.456-4.236V34.02H108.112z"/>
</g>
<g>
	<path style="fill:#C6A76E;" d="M24.153,84.714c-1.561,2.973-4.087,4.357-6.539,4.357c-5.708,0-8.138-4.505-8.138-11.417
		c0-5.648,2.118-10.59,6.02-10.59c3.456,0,6.057,3.493,8.063,8.36h0.074l-0.223-9.178c-0.966,0.743-1.523,1.041-2.452,1.041
		c-1.264,0-2.936-1.041-6.54-1.041C6.503,66.246,0,71.783,0,80.181C0,87.909,5.425,93,12.782,93c6.02,0,10.107-3.121,11.556-8.175
		L24.153,84.714z"/>
	<path style="fill:#C6A76E;" d="M65.727,75.164c-3.01-1.003-5.611-1.97-5.611-4.793c0-2.081,1.635-3.456,3.976-3.456
		c3.79,0,6.019,2.676,8.62,6.8h0.074l-0.149-7.469c-0.632,0.446-1.449,0.929-2.229,0.929c-1.672,0-3.604-0.929-6.317-0.929
		c-6.354,0-10.293,3.233-10.293,8.324c0,5.239,3.567,7.023,7.172,8.286c3.753,1.338,7.543,2.155,7.543,5.648
		c0,2.452-1.635,3.827-4.57,3.827c-3.642,0-7.58-3.381-10.256-8.175h-0.074L54.393,93c0.892-0.595,1.747-0.929,2.75-0.929
		c1.635,0,3.79,0.929,6.837,0.929c5.834,0,10.59-3.233,10.59-8.546C74.57,78.025,69.777,76.539,65.727,75.164z"/>
	<path style="fill:#C6A76E;" d="M156.829,92.889c-2.49,0-4.348-1.969-4.348-4.384c0-2.415,1.858-4.385,4.348-4.385
		s4.348,1.97,4.348,4.385C161.177,90.919,159.319,92.889,156.829,92.889z"/>
	<path style="fill:#C6A76E;" d="M90.938,66.692v-0.074H77.932v0.074c1.598,1.263,2.007,1.858,2.007,4.31v17.241
		c0,2.452-0.409,3.047-2.007,4.311v0.074h13.006v-0.074c-1.598-1.264-2.007-1.858-2.007-4.311V71.002
		C88.931,68.55,89.34,67.956,90.938,66.692z"/>
	<path style="fill:#C6A76E;" d="M48.916,88.467L37.657,66.246h-0.186L26.77,88.318c-1.077,2.23-2.118,3.27-3.456,4.236v0.074h6.8
		v-0.074c-1.524-0.706-2.192-1.747-2.192-2.936c0-0.557,0.149-1.115,0.409-1.709l1.115-2.378h8.212l1.375,2.824
		c0.335,0.743,0.52,1.301,0.52,2.044c0,0.855-0.409,1.449-1.486,2.155v0.074h13.86v-0.074C50.7,91.588,50.031,90.696,48.916,88.467z
		 M29.965,84.379l3.493-7.432l3.641,7.432H29.965z"/>
	<path style="fill:#C6A76E;" d="M113.982,66.618v0.074c2.415,1.115,3.233,2.936,3.233,6.094v6.763l-10.776-12.931H94.697v0.074
		c1.598,1.263,2.006,1.858,2.006,4.31v15.867c0,2.75-0.743,4.422-2.75,5.685v0.074h7.246v-0.074
		c-2.415-1.115-3.233-2.936-3.233-6.094V70.668l17.985,21.961h2.527V72.377c0-2.75,0.743-4.422,2.75-5.685v-0.074H113.982z"/>
	<path style="fill:#C6A76E;" d="M176.025,66.618h-12.262v0.074c1.598,1.263,2.007,1.858,2.007,4.31v17.241
		c0,2.452-0.409,3.047-2.007,4.311v0.074h12.262c9.364,0,16.089-4.087,16.089-13.006C192.114,70.705,185.389,66.618,176.025,66.618z
		 M175.69,91.7h-0.929V67.547h0.929c5.053,0,6.874,4.831,6.874,12.076S180.744,91.7,175.69,91.7z"/>
	<path style="fill:#C6A76E;" d="M220.79,88.541l-7.246-14.418L217,70.891c1.784-1.672,3.678-3.196,6.057-4.199v-0.074h-7.841v0.074
		c1.003,0.483,1.561,1.263,1.561,2.081c0,0.594-0.297,1.226-0.891,1.784l-10.665,9.847v-9.401c0-2.452,0.409-3.047,2.007-4.31
		v-0.074h-13.006v0.074c1.598,1.263,2.007,1.858,2.007,4.31v17.241c0,2.452-0.409,3.047-2.007,4.311v0.074h13.006v-0.074
		c-1.598-1.264-2.007-1.858-2.007-4.311V81.63l1.449-1.338l3.902,7.803c0.743,1.524,1.04,2.378,1.04,3.084
		c0,0.669-0.26,1.003-0.966,1.375v0.074h13.637v-0.074C222.722,91.551,221.756,90.436,220.79,88.541z"/>
	<path style="fill:#C6A76E;" d="M136.853,66.246c-8.1,0-13.674,5.574-13.674,13.377c0,7.803,5.574,13.377,13.674,13.377
		s13.674-5.574,13.674-13.377C150.527,71.82,144.953,66.246,136.853,66.246z M136.853,92.331c-3.418,0-4.013-3.976-4.013-12.708
		s0.595-12.708,4.013-12.708s4.013,3.976,4.013,12.708S140.271,92.331,136.853,92.331z"/>
</g>
</svg>
