<?xml version="1.0" encoding="utf-8"?>
<!-- Generator: Adobe Illustrator 16.0.4, SVG Export Plug-In . SVG Version: 6.00 Build 0)  -->
<!DOCTYPE svg PUBLIC "-//W3C//DTD SVG 1.1//EN" "http://www.w3.org/Graphics/SVG/1.1/DTD/svg11.dtd">
<svg version="1.1" id="_x3C_Layer_x3E_" xmlns="http://www.w3.org/2000/svg" xmlns:xlink="http://www.w3.org/1999/xlink" x="0px"
	 y="0px" width="204.2px" height="71.3px" viewBox="0 0 204.2 71.3" style="enable-background:new 0 0 204.2 71.3;"
	 xml:space="preserve">
<style type="text/css">
<![CDATA[
	.st0{fill:#FFFFFF;}
]]>
</style>
<g>
	<path class="st0" d="M58.2,9.6c1.2-12.2-8.4-11-13.6-6.2c-5.4,5-2.3,14.2,5,14.5C54.2,18.1,57.7,14.3,58.2,9.6z M58.2,31.9
		c-0.1-0.9,0.1-5.6-1.9-7.4c-4.2-3.9-11.9,1.3-11.5,8.3c0.1,1.1,1,7.2,1.3,9.1c0.3,2,1.7,9.8,1.7,9.8c0.3,1.3,0.4,2.9,1.5,4
		c2.8,3.1,8.8,2,9.2-2.5c0-0.7-0.1-3.9-0.1-11C58.4,35.3,58.2,31.9,58.2,31.9z M2.2,43.8c1.3,6,3.7,15.1,7.6,17.1
		c4.8,2.4,21.1-0.6,26.2-8.6c2.1-3.2,3.1-7.1,3-11c-0.1-4.5-1.5-10.9-8-16.2c6.5-13.2-3.5-24.9-14.5-21.5C4.4,7.4,0,12,0,21.7
		C0,28.9,0.9,37.6,2.2,43.8z M16,12.2c2.7-1.1,5.6,1.3,5.2,5.2c-0.5,4.7-9,12.7-9.9,4.4C10.5,14.8,12.4,13.6,16,12.2z M15.1,47.6
		C13.2,43,10,34.8,18.5,33.8c4-0.4,7.9,3.1,8.1,7.7C27,47.8,17.3,52.8,15.1,47.6z M98.1,28.4C95.6,12.2,76.7,8,67.9,18.6
		c-3.2,3.9-1.6,14.8-1.3,20.2c0.4,5.4,1.1,11.8,1.1,11.8l0.2,1.1c1.2,6.2,9.9,2.7,11.8-1.3c0.8-1.7,0.3-7,0.2-11
		c-0.1-3-0.2-5.9-0.2-5.9c-0.6-8.8,7.1-7.9,9.1-4.6c1.5,2.3,1.5,6.2,1.5,9.1c0,2.9-0.3,7.2-0.3,7.2l0,1.1c-0.1,4,3.9,2.3,5.6,0.2
		c0.6-0.8,1.8-2.8,2.3-5.1C98.4,38.2,98.9,33.9,98.1,28.4z M162,19.2c-16.7,9-15.4,36,0.4,39.6c10.3,2.4,21.1-7,23-20.1
		C187.7,23.4,178.7,10.2,162,19.2z M176.2,41.4c-1.2,7.4-8.7,11.1-12.5,6.2c-4.4-5.7,0.6-16.3,7.3-15.5
		C174.6,32.5,176.9,36.7,176.2,41.4z M144.7,33.2c1.1-20.1-20.7-25.3-32.4-14.7c-13.3,12.1-7.7,33.6,9.2,34.8
		c3.4,0.3,6.5-0.6,7.6-0.9c-1.9,6.9-8.6,6.9-17.8,6.7c-8.6-0.3-10.7,9.4-5.6,10.7c20.4,5.4,31.5-3.7,35.9-20
		C143.9,41.1,144.3,40.4,144.7,33.2z M133.2,31.8c-1.2,7.9-9.5,10.9-13.2,4.8c-3.7-6.2,0.9-15.4,7.4-14.5
		C131.3,22.7,133.9,27,133.2,31.8z"/>
	<g>
		<g>
			<path class="st0" d="M199.4,19.8l-1.3-2.1h-0.7v2.1h-1.1v-5.6h2c1.3,0,2.1,0.5,2.1,1.7c0,0.7-0.4,1.2-1.1,1.5l0,0l1.6,2.3H199.4z
				 M198.1,15h-0.7v1.9h0.7c0.7,0,1-0.2,1-0.9C199.1,15.3,198.8,15,198.1,15z"/>
		</g>
		<g>
			<path class="st0" d="M192.2,17.3c0,3.3,2.7,6,6,6c3.3,0,6-2.7,6-6c0-3.3-2.7-6-6-6C194.9,11.3,192.2,14,192.2,17.3z M193.4,17.3
				c0-2.7,2.2-4.8,4.8-4.8c2.7,0,4.8,2.2,4.8,4.8c0,2.7-2.2,4.8-4.8,4.8C195.5,22.1,193.4,20,193.4,17.3z"/>
		</g>
	</g>
</g>
</svg>
